<mxfile host="app.diagrams.net" agent="Mozilla/5.0 (Windows NT 10.0; Win64; x64) AppleWebKit/537.36 (KHTML, like Gecko) Chrome/134.0.0.0 Safari/537.36" version="26.1.3">
  <diagram name="第 1 页" id="xiR_kEt0OpQ8CeVrQcBl">
    <mxGraphModel dx="1050" dy="522" grid="1" gridSize="10" guides="1" tooltips="1" connect="1" arrows="1" fold="1" page="1" pageScale="1" pageWidth="827" pageHeight="1169" math="0" shadow="0">
      <root>
        <mxCell id="0" />
        <mxCell id="1" parent="0" />
        <mxCell id="oyE6H1fGniHES5Ny4-Sb-2" value="" style="rounded=0;whiteSpace=wrap;html=1;" vertex="1" parent="1">
          <mxGeometry x="280" y="80" width="280" height="140" as="geometry" />
        </mxCell>
        <mxCell id="oyE6H1fGniHES5Ny4-Sb-3" value="Key Distribution Center(KDC)&amp;nbsp;" style="text;html=1;align=center;verticalAlign=middle;resizable=0;points=[];autosize=1;strokeColor=none;fillColor=none;" vertex="1" parent="1">
          <mxGeometry x="330" y="100" width="180" height="30" as="geometry" />
        </mxCell>
        <mxCell id="oyE6H1fGniHES5Ny4-Sb-5" value="Autentication Service" style="rounded=1;whiteSpace=wrap;html=1;" vertex="1" parent="1">
          <mxGeometry x="304" y="160" width="110" height="50" as="geometry" />
        </mxCell>
        <mxCell id="oyE6H1fGniHES5Ny4-Sb-6" value="Ticket Granting Service" style="rounded=1;whiteSpace=wrap;html=1;" vertex="1" parent="1">
          <mxGeometry x="430" y="160" width="110" height="50" as="geometry" />
        </mxCell>
        <mxCell id="oyE6H1fGniHES5Ny4-Sb-7" value="DCs" style="text;html=1;align=center;verticalAlign=middle;resizable=0;points=[];autosize=1;strokeColor=none;fillColor=none;" vertex="1" parent="1">
          <mxGeometry x="389" y="40" width="50" height="30" as="geometry" />
        </mxCell>
        <mxCell id="oyE6H1fGniHES5Ny4-Sb-8" value="Client" style="rounded=1;whiteSpace=wrap;html=1;" vertex="1" parent="1">
          <mxGeometry x="350" y="320" width="120" height="60" as="geometry" />
        </mxCell>
        <mxCell id="oyE6H1fGniHES5Ny4-Sb-9" value="Server&amp;nbsp;&lt;div&gt;HTTP Service&lt;/div&gt;" style="rounded=1;whiteSpace=wrap;html=1;" vertex="1" parent="1">
          <mxGeometry x="590" y="320" width="120" height="60" as="geometry" />
        </mxCell>
        <mxCell id="oyE6H1fGniHES5Ny4-Sb-10" value="" style="endArrow=classic;html=1;rounded=0;exitX=0.25;exitY=0;exitDx=0;exitDy=0;" edge="1" parent="1" source="oyE6H1fGniHES5Ny4-Sb-8">
          <mxGeometry width="50" height="50" relative="1" as="geometry">
            <mxPoint x="280" y="260" as="sourcePoint" />
            <mxPoint x="330" y="210" as="targetPoint" />
          </mxGeometry>
        </mxCell>
        <mxCell id="oyE6H1fGniHES5Ny4-Sb-12" value="1" style="edgeLabel;html=1;align=center;verticalAlign=middle;resizable=0;points=[];" vertex="1" connectable="0" parent="oyE6H1fGniHES5Ny4-Sb-10">
          <mxGeometry x="-0.05" relative="1" as="geometry">
            <mxPoint as="offset" />
          </mxGeometry>
        </mxCell>
        <mxCell id="oyE6H1fGniHES5Ny4-Sb-13" value="" style="endArrow=classic;html=1;rounded=0;entryX=0.698;entryY=0.04;entryDx=0;entryDy=0;entryPerimeter=0;" edge="1" parent="1">
          <mxGeometry width="50" height="50" relative="1" as="geometry">
            <mxPoint x="364" y="210" as="sourcePoint" />
            <mxPoint x="413.76" y="322.4" as="targetPoint" />
          </mxGeometry>
        </mxCell>
        <mxCell id="oyE6H1fGniHES5Ny4-Sb-21" value="2, TGT" style="edgeLabel;html=1;align=center;verticalAlign=middle;resizable=0;points=[];" vertex="1" connectable="0" parent="oyE6H1fGniHES5Ny4-Sb-13">
          <mxGeometry x="0.2128" y="-2" relative="1" as="geometry">
            <mxPoint x="1" y="-8" as="offset" />
          </mxGeometry>
        </mxCell>
        <mxCell id="oyE6H1fGniHES5Ny4-Sb-22" value="" style="endArrow=classic;html=1;rounded=0;entryX=0.356;entryY=0.952;entryDx=0;entryDy=0;entryPerimeter=0;" edge="1" parent="1" target="oyE6H1fGniHES5Ny4-Sb-6">
          <mxGeometry width="50" height="50" relative="1" as="geometry">
            <mxPoint x="414" y="320" as="sourcePoint" />
            <mxPoint x="464" y="270" as="targetPoint" />
          </mxGeometry>
        </mxCell>
        <mxCell id="oyE6H1fGniHES5Ny4-Sb-23" value="3" style="edgeLabel;html=1;align=center;verticalAlign=middle;resizable=0;points=[];" vertex="1" connectable="0" parent="oyE6H1fGniHES5Ny4-Sb-22">
          <mxGeometry x="-0.1484" y="1" relative="1" as="geometry">
            <mxPoint as="offset" />
          </mxGeometry>
        </mxCell>
        <mxCell id="oyE6H1fGniHES5Ny4-Sb-24" value="" style="endArrow=classic;html=1;rounded=0;entryX=0.833;entryY=0;entryDx=0;entryDy=0;entryPerimeter=0;" edge="1" parent="1" target="oyE6H1fGniHES5Ny4-Sb-8">
          <mxGeometry width="50" height="50" relative="1" as="geometry">
            <mxPoint x="510" y="210" as="sourcePoint" />
            <mxPoint x="460" y="260" as="targetPoint" />
          </mxGeometry>
        </mxCell>
        <mxCell id="oyE6H1fGniHES5Ny4-Sb-25" value="4, Servie Ticket" style="edgeLabel;html=1;align=center;verticalAlign=middle;resizable=0;points=[];" vertex="1" connectable="0" parent="oyE6H1fGniHES5Ny4-Sb-24">
          <mxGeometry x="0.1922" y="-2" relative="1" as="geometry">
            <mxPoint x="28" y="-5" as="offset" />
          </mxGeometry>
        </mxCell>
        <mxCell id="oyE6H1fGniHES5Ny4-Sb-26" value="" style="endArrow=classic;html=1;rounded=0;entryX=0.013;entryY=0.38;entryDx=0;entryDy=0;entryPerimeter=0;exitX=1.013;exitY=0.393;exitDx=0;exitDy=0;exitPerimeter=0;" edge="1" parent="1" source="oyE6H1fGniHES5Ny4-Sb-8" target="oyE6H1fGniHES5Ny4-Sb-9">
          <mxGeometry width="50" height="50" relative="1" as="geometry">
            <mxPoint x="470" y="340" as="sourcePoint" />
            <mxPoint x="520" y="290" as="targetPoint" />
          </mxGeometry>
        </mxCell>
        <mxCell id="oyE6H1fGniHES5Ny4-Sb-28" value="5" style="edgeLabel;html=1;align=center;verticalAlign=middle;resizable=0;points=[];" vertex="1" connectable="0" parent="oyE6H1fGniHES5Ny4-Sb-26">
          <mxGeometry x="-0.1458" y="1" relative="1" as="geometry">
            <mxPoint as="offset" />
          </mxGeometry>
        </mxCell>
        <mxCell id="oyE6H1fGniHES5Ny4-Sb-27" value="" style="endArrow=classic;html=1;rounded=0;entryX=1.013;entryY=0.647;entryDx=0;entryDy=0;entryPerimeter=0;" edge="1" parent="1" target="oyE6H1fGniHES5Ny4-Sb-8">
          <mxGeometry width="50" height="50" relative="1" as="geometry">
            <mxPoint x="590" y="360" as="sourcePoint" />
            <mxPoint x="540" y="410" as="targetPoint" />
          </mxGeometry>
        </mxCell>
        <mxCell id="oyE6H1fGniHES5Ny4-Sb-29" value="6" style="edgeLabel;html=1;align=center;verticalAlign=middle;resizable=0;points=[];" vertex="1" connectable="0" parent="oyE6H1fGniHES5Ny4-Sb-27">
          <mxGeometry x="0.1009" relative="1" as="geometry">
            <mxPoint as="offset" />
          </mxGeometry>
        </mxCell>
      </root>
    </mxGraphModel>
  </diagram>
</mxfile>
